<svg xmlns="http://www.w3.org/2000/svg" viewBox="0 0 800 600">
  <!-- House Structure - Semi-transparent to show internal systems -->
  <g id="house-structure" opacity="0.3">
    <!-- Foundation -->
    <rect x="200" y="350" width="400" height="50" fill="#5D4037"/>
    
    <!-- Main house body -->
    <rect x="200" y="200" width="400" height="150" fill="#D7CFA9"/>
    
    <!-- Roof -->
    <polygon points="200,200 400,100 600,200" fill="#5D4037"/>
    
    <!-- Chimney -->
    <rect x="500" y="130" width="40" height="70" fill="#7B1FA2"/>
    
    <!-- Front Door -->
    <rect x="375" y="300" width="50" height="100" fill="#4E342E"/>
    
    <!-- Windows -->
    <rect x="245" y="225" width="60" height="60" fill="#263238"/>
    <rect x="495" y="225" width="60" height="60" fill="#263238"/>
    <rect x="250" y="130" width="40" height="40" fill="#263238"/>
    <rect x="510" y="130" width="40" height="40" fill="#263238"/>
    
    <!-- Porch -->
    <rect x="350" y="400" width="100" height="10" fill="#6D4C41"/>
    <rect x="350" y="350" width="5" height="50" fill="#6D4C41"/>
    <rect x="445" y="350" width="5" height="50" fill="#6D4C41"/>
  </g>
  
  <!-- Internal floors for better system visualization -->
  <g id="internal-structure">
    <rect x="200" y="275" width="400" height="2" fill="white" opacity="0.4"/> <!-- Middle floor divider -->
    <rect x="220" y="370" width="360" height="2" fill="white" opacity="0.4"/> <!-- Basement ceiling -->
    <rect x="220" y="390" width="360" height="10" fill="#263238" opacity="0.7"/> <!-- Basement floor -->
  </g>
  
  <!-- Backend Systems Layer - Glowing to show data flows -->
  <g id="backend-systems">
    <!-- Main server/database in basement -->
    <rect x="300" y="375" width="30" height="20" fill="#0D47A1" stroke="#2196F3" stroke-width="1"/>
    <circle cx="310" cy="380" r="2" fill="#00E676"/>
    <circle cx="320" cy="380" r="2" fill="#FFEA00"/>
    
    <!-- Network hub/router -->
    <rect x="360" y="375" width="15" height="15" fill="#0D47A1" stroke="#2196F3" stroke-width="1"/>
    <circle cx="367.5" cy="382.5" r="5" fill="#2196F3" opacity="0.5"/>
    
    <!-- WiFi transmitter -->
    <circle cx="400" cy="300" r="5" fill="#0288D1"/>
    <circle cx="400" cy="300" r="20" fill="#0288D1" opacity="0.1"/>
    <circle cx="400" cy="300" r="40" fill="#0288D1" opacity="0.05"/>
    
    <!-- Network cables/pipes - Glowing blue -->
    <g id="network" stroke="#2979FF" stroke-width="2" fill="none">
      <!-- Main vertical data backbone -->
      <path d="M367.5,382.5 L367.5,300 L500,300" stroke-dasharray="2,2"/>
      <path d="M367.5,300 L250,300" stroke-dasharray="2,2"/>
      <path d="M367.5,300 L367.5,200" stroke-dasharray="2,2"/>
      <path d="M367.5,200 L250,200 L250,140" stroke-dasharray="2,2"/>
      <path d="M367.5,200 L520,200 L520,140" stroke-dasharray="2,2"/>
    </g>
    
    <!-- Wireless data connections - dotted, animated-like -->
    <g id="wireless" stroke="#2979FF" stroke-width="1" stroke-dasharray="1,3" opacity="0.7">
      <path d="M400,300 L275,255 L275,240"/>
      <path d="M400,300 L525,255 L525,240"/>
      <path d="M400,300 L415,350 L445,350"/>
    </g>
    
    <!-- Electrical system - Orange/yellow -->
    <g id="electrical" stroke="#FF9100" stroke-width="2" fill="none">
      <!-- Main electrical panel -->
      <rect x="210" y="350" width="10" height="20" fill="#FF9100" opacity="0.8"/>
      
      <!-- Main electrical lines -->
      <path d="M220,360 L250,360 L250,300" stroke-dasharray="5,2"/>
      <path d="M250,300 L275,300 L275,255"/>
      <path d="M250,300 L350,300"/>
      <path d="M450,300 L525,300 L525,255"/>
      <path d="M525,300 L550,300 L550,360"/>
      <path d="M250,360 L550,360" stroke-dasharray="5,2"/>
      <circle cx="365" cy="340" r="3" fill="#FFAB00"/> <!-- Doorbell -->
      <circle cx="400" cy="290" r="4" fill="#FFAB00"/> <!-- Porch light -->
      <circle cx="275" cy="255" r="3" fill="#FFAB00"/> <!-- Left window -->
      <circle cx="525" cy="255" r="3" fill="#FFAB00"/> <!-- Right window -->
      <circle cx="270" cy="140" r="3" fill="#FFAB00"/> <!-- Left attic -->
      <circle cx="530" cy="140" r="3" fill="#FFAB00"/> <!-- Right attic -->
    </g>
    
    <!-- Plumbing system - Blue/cyan -->
    <g id="plumbing" stroke="#00B8D4" stroke-width="2.5" fill="none">
      <!-- Water main entry -->
      <path d="M230,390 L230,375"/>
      
      <!-- Main water supply lines -->
      <path d="M230,375 L320,375"/>
      <path d="M320,375 L320,225 L280,225"/> <!-- To left side -->
      <path d="M320,260 L470,260"/> <!-- Horizontal cross-connect -->
      <path d="M470,260 L470,225 L520,225"/> <!-- To right side -->
      
      <!-- Drain system -->
      <path d="M280,235 L280,300 L230,300 L230,390" stroke="#0097A7" stroke-dasharray="5,3"/>
      <path d="M520,235 L520,300 L550,300 L550,390" stroke="#0097A7" stroke-dasharray="5,3"/>
      
      <!-- Water fixtures -->
      <circle cx="280" cy="225" r="4" fill="#00B8D4"/>
      <circle cx="520" cy="225" r="4" fill="#00B8D4"/>
      <circle cx="470" cy="240" r="4" fill="#00B8D4"/>
    </g>
    
    <!-- HVAC system - Green -->
    <g id="hvac" stroke="#00C853" stroke-width="3" fill="none" opacity="0.8">
      <!-- HVAC unit -->
      <rect x="470" y="375" width="30" height="15" fill="#00C853" opacity="0.3"/>
      
      <!-- Main ducts -->
      <path d="M485,375 L485,330 L440,330 L440,250" stroke-dasharray="3,3"/>
      <path d="M440,330 L360,330 L360,250" stroke-dasharray="3,3"/>
      
      <!-- Vents -->
      <rect x="355" y="250" width="10" height="5" fill="#00C853" opacity="0.6"/>
      <rect x="435" y="250" width="10" height="5" fill="#00C853" opacity="0.6"/>
      <rect x="355" y="220" width="10" height="5" fill="#00C853" opacity="0.6"/>
      <rect x="435" y="220" width="10" height="5" fill="#00C853" opacity="0.6"/>
    </g>
    
    <!-- Security system - Red -->
    <g id="security" stroke="#F44336" stroke-width="1" fill="none">
      <!-- Security panel -->
      <rect x="425" y="340" width="15" height="20" fill="#455A64" stroke="#F44336" stroke-width="1"/>
      
      <!-- Security sensors -->
      <circle cx="375" cy="300" r="2" fill="#F44336"/> <!-- Door sensor -->
      <circle cx="245" cy="225" r="2" fill="#F44336"/> <!-- Window sensor -->
      <circle cx="305" cy="225" r="2" fill="#F44336"/> <!-- Window sensor -->
      <circle cx="495" cy="225" r="2" fill="#F44336"/> <!-- Window sensor -->
      <circle cx="555" cy="225" r="2" fill="#F44336"/> <!-- Window sensor -->
      
      <!-- Security connections -->
      <path d="M432.5,340 L432.5,320 L400,320 L375,320 L375,300" stroke-dasharray="1,1"/>
      <path d="M432.5,320 L450,320 L500,320 L500,225" stroke-dasharray="1,1"/>
      <path d="M450,320 L400,320 L300,320 L250,320 L250,225" stroke-dasharray="1,1"/>
      <path d="M432.5,340 L432.5,350 L490,350 L580,350 L580,210" stroke-dasharray="1,1"/>
    </g>
    
    <!-- Data processing animations - glowing nodes representing computation -->
    <g id="data-processing">
      <circle cx="310" cy="380" r="3" fill="#00E676" opacity="0.8">
        <animate attributeName="opacity" values="0.3;0.8;0.3" dur="2s" repeatCount="indefinite"/>
      </circle>
      <circle cx="367.5" cy="300" r="3" fill="#2979FF" opacity="0.8">
        <animate attributeName="opacity" values="0.3;0.8;0.3" dur="1.5s" repeatCount="indefinite"/>
      </circle>
      <circle cx="432.5" cy="340" r="3" fill="#F44336" opacity="0.8">
        <animate attributeName="opacity" values="0.3;0.8;0.3" dur="3s" repeatCount="indefinite"/>
      </circle>
      <circle cx="485" cy="375" r="3" fill="#00C853" opacity="0.8">
        <animate attributeName="opacity" values="0.3;0.8;0.3" dur="4s" repeatCount="indefinite"/>
      </circle>
    </g>
    
    <!-- Data flow pulses - small circles traveling along the paths -->
    <circle cx="310" cy="380" r="2" fill="white">
      <animate attributeName="cx" values="310;367.5" dur="2s" repeatCount="indefinite"/>
      <animate attributeName="cy" values="380;382.5" dur="2s" repeatCount="indefinite"/>
    </circle>
    <circle cx="367.5" cy="300" r="2" fill="white">
      <animate attributeName="cx" values="367.5;275" dur="3s" repeatCount="indefinite"/>
      <animate attributeName="cy" values="300;255" dur="3s" repeatCount="indefinite"/>
    </circle>
  </g>
</svg>