<svg xmlns="http://www.w3.org/2000/svg" viewBox="0 0 800 600">
  <!-- Environment Layer - Sunset/Dusk Setting -->
  <g id="environment-layer">
    <!-- Sky with sunset gradient -->
    <linearGradient id="sunset-gradient" x1="0%" y1="0%" x2="0%" y2="100%">
      <stop offset="0%" style="stop-color:#1A237E"/>
      <stop offset="20%" style="stop-color:#4A148C"/>
      <stop offset="40%" style="stop-color:#880E4F"/>
      <stop offset="60%" style="stop-color:#C62828"/>
      <stop offset="80%" style="stop-color:#FF6F00"/>
      <stop offset="100%" style="stop-color:#FFC107"/>
    </linearGradient>
    <rect width="800" height="400" fill="url(#sunset-gradient)"/>
    
    <!-- Setting sun -->
    <circle cx="650" cy="100" r="60" fill="#FF3D00"/>
    <circle cx="650" cy="100" r="70" fill="#FF3D00" opacity="0.5"/>
    <circle cx="650" cy="100" r="80" fill="#FF3D00" opacity="0.3"/>
    
    <!-- Ground with warm evening lighting -->
    <linearGradient id="ground-gradient" x1="0%" y1="0%" x2="0%" y2="100%">
      <stop offset="0%" style="stop-color:#4CAF50"/>
      <stop offset="100%" style="stop-color:#1B5E20"/>
    </linearGradient>
    <rect y="400" width="800" height="200" fill="url(#ground-gradient)"/>
  </g>
  
  <!-- House Complete Structure with CSS Styling -->
  <g id="styled-house">
    <!-- Foundation with texture -->
    <rect x="200" y="350" width="400" height="50" fill="#8D6E63"/>
    <rect x="200" y="350" width="400" height="5" fill="#5D4037"/>
    <rect x="200" y="395" width="400" height="5" fill="#5D4037"/>
    <!-- Foundation texture lines -->
    <g stroke="#5D4037" stroke-width="1" opacity="0.5">
      <line x1="220" y1="350" x2="220" y2="400"/>
      <line x1="260" y1="350" x2="260" y2="400"/>
      <line x1="300" y1="350" x2="300" y2="400"/>
      <line x1="340" y1="350" x2="340" y2="400"/>
      <line x1="380" y1="350" x2="380" y2="400"/>
      <line x1="420" y1="350" x2="420" y2="400"/>
      <line x1="460" y1="350" x2="460" y2="400"/>
      <line x1="500" y1="350" x2="500" y2="400"/>
      <line x1="540" y1="350" x2="540" y2="400"/>
      <line x1="580" y1="350" x2="580" y2="400"/>
    </g>
    
    <!-- Main house exterior siding -->
    <rect x="200" y="200" width="400" height="150" fill="#FFECB3"/>
    
    <!-- Siding texture lines -->
    <g stroke="#E6D19A" stroke-width="1">
      <line x1="200" y1="215" x2="600" y2="215"/>
      <line x1="200" y1="230" x2="600" y2="230"/>
      <line x1="200" y1="245" x2="600" y2="245"/>
      <line x1="200" y1="260" x2="600" y2="260"/>
      <line x1="200" y1="275" x2="600" y2="275"/>
      <line x1="200" y1="290" x2="600" y2="290"/>
      <line x1="200" y1="305" x2="600" y2="305"/>
      <line x1="200" y1="320" x2="600" y2="320"/>
      <line x1="200" y1="335" x2="600" y2="335"/>
    </g>
    
    <!-- Decorative house trim -->
    <rect x="195" y="195" width="410" height="5" fill="#5D4037"/>
    <rect x="195" y="345" width="410" height="5" fill="#5D4037"/>
    
    <!-- Roof with shingles texture -->
    <polygon points="200,200 400,100 600,200" fill="#795548"/>
    
    <!-- Roof trim -->
    <polygon points="195,205 400,100 605,205 600,205 400,105 200,205" fill="#5D4037"/>
    
    <!-- Roof shingle texture -->
    <g stroke="#6D4C41" stroke-width="1" opacity="0.7">
      <line x1="220" y1="190" x2="580" y2="190"/>
      <line x1="240" y1="180" x2="560" y2="180"/>
      <line x1="260" y1="170" x2="540" y2="170"/>
      <line x1="280" y1="160" x2="520" y2="160"/>
      <line x1="300" y1="150" x2="500" y2="150"/>
      <line x1="320" y1="140" x2="480" y2="140"/>
      <line x1="340" y1="130" x2="460" y2="130"/>
      <line x1="360" y1="120" x2="440" y2="120"/>
      <line x1="380" y1="110" x2="420" y2="110"/>
    </g>
    
    <!-- Chimney with brick texture -->
    <rect x="500" y="130" width="40" height="70" fill="#C62828"/>
    <rect x="500" y="130" width="40" height="5" fill="#B71C1C"/>
    <rect x="500" y="195" width="40" height="5" fill="#B71C1C"/>
    
    <!-- Chimney brick texture -->
    <g stroke="#9A1818" stroke-width="1" opacity="0.7">
      <line x1="500" y1="145" x2="540" y2="145"/>
      <line x1="500" y1="160" x2="540" y2="160"/>
      <line x1="500" y1="175" x2="540" y2="175"/>
      <line x1="500" y1="190" x2="540" y2="190"/>
      
      <line x1="510" y1="130" x2="510" y2="200"/>
      <line x1="520" y1="130" x2="520" y2="200"/>
      <line x1="530" y1="130" x2="530" y2="200"/>
    </g>
    
    <!-- Windows with styled frames -->
    <!-- Left window -->
    <rect x="245" y="225" width="60" height="60" fill="#64B5F6"/>
    <rect x="245" y="225" width="60" height="60" stroke="#5D4037" stroke-width="5" fill="none"/>
    <line x1="275" y1="225" x2="275" y2="285" stroke="#5D4037" stroke-width="3"/>
    <line x1="245" y1="255" x2="305" y2="255" stroke="#5D4037" stroke-width="3"/>
    
    <!-- Window shutters -->
    <rect x="235" y="225" width="10" height="60" fill="#607D8B"/>
    <rect x="235" y="225" width="10" height="60" stroke="#455A64" stroke-width="1" fill="none"/>
    <g stroke="#455A64" stroke-width="1">
      <line x1="235" y1="235" x2="245" y2="235"/>
      <line x1="235" y1="245" x2="245" y2="245"/>
      <line x1="235" y1="255" x2="245" y2="255"/>
      <line x1="235" y1="265" x2="245" y2="265"/>
      <line x1="235" y1="275" x2="245" y2="275"/>
    </g>
    
    <rect x="305" y="225" width="10" height="60" fill="#607D8B"/>
    <rect x="305" y="225" width="10" height="60" stroke="#455A64" stroke-width="1" fill="none"/>
    <g stroke="#455A64" stroke-width="1">
      <line x1="305" y1="235" x2="315" y2="235"/>
      <line x1="305" y1="245" x2="315" y2="245"/>
      <line x1="305" y1="255" x2="315" y2="255"/>
      <line x1="305" y1="265" x2="315" y2="265"/>
      <line x1="305" y1="275" x2="315" y2="275"/>
    </g>
    
    <!-- Right window -->
    <rect x="495" y="225" width="60" height="60" fill="#64B5F6"/>
    <rect x="495" y="225" width="60" height="60" stroke="#5D4037" stroke-width="5" fill="none"/>
    <line x1="525" y1="225" x2="525" y2="285" stroke="#5D4037" stroke-width="3"/>
    <line x1="495" y1="255" x2="555" y2="255" stroke="#5D4037" stroke-width="3"/>
    
    <!-- Window shutters -->
    <rect x="485" y="225" width="10" height="60" fill="#607D8B"/>
    <rect x="485" y="225" width="10" height="60" stroke="#455A64" stroke-width="1" fill="none"/>
    <g stroke="#455A64" stroke-width="1">
      <line x1="485" y1="235" x2="495" y2="235"/>
      <line x1="485" y1="245" x2="495" y2="245"/>
      <line x1="485" y1="255" x2="495" y2="255"/>
      <line x1="485" y1="265" x2="495" y2="265"/>
      <line x1="485" y1="275" x2="495" y2="275"/>
    </g>
    
    <rect x="555" y="225" width="10" height="60" fill="#607D8B"/>
    <rect x="555" y="225" width="10" height="60" stroke="#455A64" stroke-width="1" fill="none"/>
    <g stroke="#455A64" stroke-width="1">
      <line x1="555" y1="235" x2="565" y2="235"/>
      <line x1="555" y1="245" x2="565" y2="245"/>
      <line x1="555" y1="255" x2="565" y2="255"/>
      <line x1="555" y1="265" x2="565" y2="265"/>
      <line x1="555" y1="275" x2="565" y2="275"/>
    </g>
    
    <!-- Attic windows -->
    <rect x="250" y="130" width="40" height="40" fill="#64B5F6"/>
    <rect x="250" y="130" width="40" height="40" stroke="#5D4037" stroke-width="4" fill="none"/>
    <line x1="270" y1="130" x2="270" y2="170" stroke="#5D4037" stroke-width="2"/>
    <line x1="250" y1="150" x2="290" y2="150" stroke="#5D4037" stroke-width="2"/>
    
    <rect x="510" y="130" width="40" height="40" fill="#64B5F6"/>
    <rect x="510" y="130" width="40" height="40" stroke="#5D4037" stroke-width="4" fill="none"/>
    <line x1="530" y1="130" x2="530" y2="170" stroke="#5D4037" stroke-width="2"/>
    <line x1="510" y1="150" x2="550" y2="150" stroke="#5D4037" stroke-width="2"/>
    
    <!-- Front Door with Design -->
    <rect x="375" y="300" width="50" height="100" fill="#5D4037"/>
    <rect x="375" y="300" width="50" height="100" stroke="#3E2723" stroke-width="3" fill="none"/>
    <rect x="385" y="310" width="30" height="40" fill="#A1887F"/>
    <rect x="385" y="310" width="30" height="40" stroke="#795548" stroke-width="1" fill="none"/>
    <rect x="385" y="360" width="30" height="30" fill="#A1887F"/>
    <rect x="385" y="360" width="30" height="30" stroke="#795548" stroke-width="1" fill="none"/>
    <circle cx="415" cy="350" r="5" fill="#FFC107"/> <!-- Doorknob -->
    
    <!-- Porch with decorative elements -->
    <rect x="350" y="400" width="100" height="10" fill="#8D6E63"/>
    <rect x="350" y="350" width="5" height="50" fill="#8D6E63"/> <!-- Left support -->
    <rect x="445" y="350" width="5" height="50" fill="#8D6E63"/> <!-- Right support -->
    
    <!-- Decorative porch railing -->
    <rect x="350" y="380" width="100" height="5" fill="#8D6E63"/>
    <rect x="355" y="380" width="5" height="20" fill="#8D6E63"/>
    <rect x="370" y="380" width="5" height="20" fill="#8D6E63"/>
    <rect x="385" y="380" width="5" height="20" fill="#8D6E63"/>
    <rect x="400" y="380" width="5" height="20" fill="#8D6E63"/>
    <rect x="415" y="380" width="5" height="20" fill="#8D6E63"/>
    <rect x="430" y="380" width="5" height="20" fill="#8D6E63"/>
    <rect x="445" y="380" width="5" height="20" fill="#8D6E63"/>
    
    <!-- Small steps to the porch -->
    <rect x="375" y="410" width="50" height="5" fill="#8D6E63"/>
    <rect x="375" y="415" width="50" height="5" fill="#795548"/>
    <rect x="375" y="420" width="50" height="5" fill="#8D6E63"/>
    <rect x="375" y="425" width="50" height="5" fill="#795548"/>
    
    <!-- Garden pathway -->
    <rect x="300" y="430" width="200" height="10" fill="#E0E0E0"/> <!-- Pathway -->
    <rect x="300" y="430" width="200" height="10" stroke="#9E9E9E" stroke-width="1" fill="none"/>
    
    <!-- Stepping stones in pathway -->
    <circle cx="320" cy="435" r="5" fill="#BDBDBD"/>
    <circle cx="350" cy="435" r="5" fill="#BDBDBD"/>
    <circle cx="380" cy="435" r="5" fill="#BDBDBD"/>
    <circle cx="410" cy="435" r="5" fill="#BDBDBD"/>
    <circle cx="440" cy="435" r="5" fill="#BDBDBD"/>
    <circle cx="470" cy="435" r="5" fill="#BDBDBD"/>
    
    <!-- Garden landscaping -->
    <!-- Left flowerbed -->
    <rect x="200" y="420" width="80" height="20" fill="#795548"/>
    <g id="left-flowers">
      <circle cx="215" cy="425" r="8" fill="#4CAF50"/> <!-- Bush -->
      <circle cx="215" cy="418" r="5" fill="#E91E63"/> <!-- Pink flower -->
      
      <circle cx="235" cy="425" r="8" fill="#4CAF50"/> <!-- Bush -->
      <circle cx="235" cy="418" r="5" fill="#9C27B0"/> <!-- Purple flower -->
      
      <circle cx="255" cy="425" r="8" fill="#4CAF50"/> <!-- Bush -->
      <circle cx="255" cy="418" r="5" fill="#FFEB3B"/> <!-- Yellow flower -->
      
      <circle cx="275" cy="425" r="8" fill="#4CAF50"/> <!-- Bush -->
      <circle cx="275" cy="418" r="5" fill="#F44336"/> <!-- Red flower -->
    </g>
    
    <!-- Right flowerbed -->
    <rect x="520" y="420" width="80" height="20" fill="#795548"/>
    <g id="right-flowers">
      <circle cx="535" cy="425" r="8" fill="#4CAF50"/> <!-- Bush -->
      <circle cx="535" cy="418" r="5" fill="#E91E63"/> <!-- Pink flower -->
      
      <circle cx="555" cy="425" r="8" fill="#4CAF50"/> <!-- Bush -->
      <circle cx="555" cy="418" r="5" fill="#9C27B0"/> <!-- Purple flower -->
      
      <circle cx="575" cy="425" r="8" fill="#4CAF50"/> <!-- Bush -->
      <circle cx="575" cy="418" r="5" fill="#FFEB3B"/> <!-- Yellow flower -->
      
      <circle cx="595" cy="425" r="8" fill="#4CAF50"/> <!-- Bush -->
      <circle cx="595" cy="418" r="5" fill="#F44336"/> <!-- Red flower -->
    </g>
    
    <!-- Mailbox -->
    <rect x="180" y="380" width="10" height="40" fill="#5D4037"/>
    <rect x="170" y="350" width="30" height="30" fill="#757575"/>
    <rect x="170" y="350" width="30" height="30" stroke="#424242" stroke-width="1" fill="none"/>
    <rect x="195" y="360" width="5" height="10" fill="#424242"/> <!-- Mail flag -->
  </g>
</svg>