<svg xmlns="http://www.w3.org/2000/svg" viewBox="0 0 800 600">
  <!-- Background - Bright daylight to clearly show structure -->
  <linearGradient id="sky-gradient" x1="0%" y1="0%" x2="0%" y2="100%">
    <stop offset="0%" style="stop-color:#87CEEB"/>
    <stop offset="100%" style="stop-color:#E0F7FA"/>
  </linearGradient>
  <rect width="800" height="400" fill="url(#sky-gradient)"/>
  
  <!-- Sun -->
  <circle cx="680" cy="80" r="40" fill="#FFD700"/>
  <circle cx="680" cy="80" r="50" fill="#FFD700" opacity="0.3"/>
  
  <!-- Ground -->
  <rect y="400" width="800" height="200" fill="#D2B48C"/>
  
  <!-- House Structure Frame - showing only the wooden structure -->
  <g id="house-structure-frame">
    <!-- Foundation -->
    <rect x="200" y="350" width="400" height="50" fill="#A0522D"/>
    
    <!-- Main framing - bottom plate -->
    <rect x="200" y="345" width="400" height="5" fill="#8B4513"/>
    
    <!-- Main framing - top plate -->
    <rect x="200" y="195" width="400" height="5" fill="#8B4513"/>
    
    <!-- Main framing - second top plate -->
    <rect x="195" y="190" width="410" height="5" fill="#8B4513"/>
    
    <!-- Corner posts and wall studs -->
    <rect x="200" y="200" width="5" height="145" fill="#8B4513"/>
    <rect x="250" y="200" width="5" height="145" fill="#8B4513"/>
    <rect x="300" y="200" width="5" height="145" fill="#8B4513"/>
    <rect x="350" y="200" width="5" height="100" fill="#8B4513"/>
    <rect x="400" y="200" width="5" height="100" fill="#8B4513"/>
    <rect x="450" y="200" width="5" height="145" fill="#8B4513"/>
    <rect x="500" y="200" width="5" height="145" fill="#8B4513"/>
    <rect x="550" y="200" width="5" height="145" fill="#8B4513"/>
    <rect x="595" y="200" width="5" height="145" fill="#8B4513"/>
    
    <!-- Horizontal support beams -->
    <rect x="200" y="270" width="400" height="5" fill="#8B4513"/>
    
    <!-- Window framing left -->
    <rect x="245" y="225" width="5" height="45" fill="#8B4513"/>
    <rect x="305" y="225" width="5" height="45" fill="#8B4513"/>
    <rect x="245" y="225" width="65" height="5" fill="#8B4513"/>
    <rect x="245" y="270" width="65" height="5" fill="#8B4513"/>
    
    <!-- Window framing right -->
    <rect x="495" y="225" width="5" height="45" fill="#8B4513"/>
    <rect x="555" y="225" width="5" height="45" fill="#8B4513"/>
    <rect x="495" y="225" width="65" height="5" fill="#8B4513"/>
    <rect x="495" y="270" width="65" height="5" fill="#8B4513"/>
    
    <!-- Door framing -->
    <rect x="370" y="300" width="5" height="45" fill="#8B4513"/>
    <rect x="425" y="300" width="5" height="45" fill="#8B4513"/>
    <rect x="370" y="300" width="60" height="5" fill="#8B4513"/>
    
    <!-- Roof structure -->
    <!-- Ridge beam -->
    <rect x="395" y="95" width="10" height="10" fill="#8B4513"/>
    
    <!-- Rafters -->
    <g id="rafters" stroke="#8B4513" stroke-width="5" fill="none">
      <line x1="200" y1="200" x2="400" y2="100"/>
      <line x1="240" y1="200" x2="400" y2="110"/>
      <line x1="280" y1="200" x2="400" y2="120"/>
      <line x1="320" y1="200" x2="400" y2="130"/>
      <line x1="360" y1="200" x2="400" y2="140"/>
      
      <line x1="600" y1="200" x2="400" y2="100"/>
      <line x1="560" y1="200" x2="400" y2="110"/>
      <line x1="520" y1="200" x2="400" y2="120"/>
      <line x1="480" y1="200" x2="400" y2="130"/>
      <line x1="440" y1="200" x2="400" y2="140"/>
    </g>
    
    <!-- Roof collar ties -->
    <rect x="280" y="150" width="240" height="5" fill="#8B4513"/>
    
    <!-- Chimney structure -->
    <rect x="500" y="130" width="40" height="70" fill="#A52A2A" stroke="#8B4513" stroke-width="2"/>
    
    <!-- Attic window framing left -->
    <rect x="245" y="130" width="5" height="40" fill="#8B4513"/>
    <rect x="290" y="130" width="5" height="40" fill="#8B4513"/>
    <rect x="245" y="130" width="50" height="5" fill="#8B4513"/>
    <rect x="245" y="170" width="50" height="5" fill="#8B4513"/>
    
    <!-- Attic window framing right -->
    <rect x="505" y="130" width="5" height="40" fill="#8B4513"/>
    <rect x="550" y="130" width="5" height="40" fill="#8B4513"/>
    <rect x="505" y="130" width="50" height="5" fill="#8B4513"/>
    <rect x="505" y="170" width="50" height="5" fill="#8B4513"/>
    
    <!-- Porch structure -->
    <rect x="350" y="400" width="100" height="10" fill="#8B4513"/>
    <rect x="350" y="350" width="5" height="50" fill="#8B4513"/>
    <rect x="445" y="350" width="5" height="50" fill="#8B4513"/>
  </g>
</svg>
